<svg width="12" height="18" viewBox="0 0 12 18" fill="none" xmlns="http://www.w3.org/2000/svg">
<path d="M5.99996 0.666748C2.77496 0.666748 0.166626 3.27508 0.166626 6.50008C0.166626 10.8751 5.99996 17.3334 5.99996 17.3334C5.99996 17.3334 11.8333 10.8751 11.8333 6.50008C11.8333 3.27508 9.22496 0.666748 5.99996 0.666748ZM1.83329 6.50008C1.83329 4.20008 3.69996 2.33342 5.99996 2.33342C8.29996 2.33342 10.1666 4.20008 10.1666 6.50008C10.1666 8.90008 7.76663 12.4918 5.99996 14.7334C4.26663 12.5084 1.83329 8.87508 1.83329 6.50008Z" fill="black"/>
<path d="M5.99996 8.58341C7.15055 8.58341 8.08329 7.65067 8.08329 6.50008C8.08329 5.34949 7.15055 4.41675 5.99996 4.41675C4.84937 4.41675 3.91663 5.34949 3.91663 6.50008C3.91663 7.65067 4.84937 8.58341 5.99996 8.58341Z" fill="black"/>
</svg>
